# xmcd
#
# Track frame offsets: 
#        150
#        10760
#        23280
#        37332
#        44562
#        53777
#        66925
#        76672
#        89102
#        98045
#        108762
#        124382
#        134347
#        149005
#        157870
#        167072
#
# Disc length: 2383 seconds
#
# Revision: 3
# Processed by: cddbd v1.5.2PL0 Copyright (c) Steve Scherf et al.
# Submitted via: ExactAudioCopy v1.0b3
#
DISCID=d4094d10
DTITLE=Various Artist - The Essential Bluegrass Collection_CD3
DYEAR=2002
DGENRE=Bluegrass
TTITLE0=Osborne Brothers - Don't Let Smoky Mountain Smoke Get In Your 
TTITLE0=Eyes
TTITLE1=Don Reno - Cincinnati Rag
TTITLE2=Merle Travis - John Henry
TTITLE3=Josh Graves - Little Home In West Virginia
TTITLE4=Merle Travis - There Ain't A Cow In Texas
TTITLE5=Jim and Jesse - The Girl I Left Behind
TTITLE6=Benny Martin - Golden Slippers
TTITLE7=Joe Maphis and Rose Lee - I'm Gonna Wear The Pants
TTITLE8=Grandpa Jones Family - Autoharp Concerto
TTITLE9=Bluefrass Cardinals - Don't Come Running
TTITLE10=Lester Flatt - Will The Circle Be Unbroken
TTITLE11=Eddie Adcock and Martha - Love's Gonna Get You
TTITLE12=Johnny Gimble - Fort Worth Hambone Blues
TTITLE13=Buddy Spicher - I'll Be All Smiles Tonight
TTITLE14=Bluegrass Cardinals - Pretty Redwing
TTITLE15=Jim and Jesse - Swing Low Sweet Chariot
EXTD=
EXTT0=
EXTT1=
EXTT2=
EXTT3=
EXTT4=
EXTT5=
EXTT6=
EXTT7=
EXTT8=
EXTT9=
EXTT10=
EXTT11=
EXTT12=
EXTT13=
EXTT14=
EXTT15=
PLAYORDER=
